<?xml version="1.0" encoding="UTF-8"?>
<svg version="1.1" xmlns="http://www.w3.org/2000/svg" width="2200" height="480">
<path d="M0 0 C1.09105278 -0.00623996 2.18210555 -0.01247993 3.30622053 -0.01890898 C6.96905474 -0.03488774 10.63122801 -0.022215 14.29406738 -0.00964355 C16.91720468 -0.01506247 19.54033894 -0.02218382 22.16346741 -0.03088379 C28.5527024 -0.04867418 34.94174949 -0.0448268 41.33099186 -0.03323323 C46.52344691 -0.02420118 51.71584929 -0.0229739 56.90830994 -0.02732849 C58.01666052 -0.02824789 58.01666052 -0.02824789 59.14740202 -0.02918586 C60.64844471 -0.03046476 62.14948738 -0.03176161 63.65053004 -0.03307623 C77.72719486 -0.04448354 91.80375549 -0.03136598 105.88040322 -0.00987476 C117.95991246 0.00799639 130.03926795 0.00489232 142.11877441 -0.0135498 C156.14491893 -0.03495388 170.17097212 -0.04338489 184.19713068 -0.03110075 C185.69266413 -0.02982655 187.1881976 -0.02856907 188.68373108 -0.02732849 C189.78748949 -0.02640284 189.78748949 -0.02640284 190.91354606 -0.02545848 C196.1000147 -0.02200419 201.28642545 -0.02783563 206.47288513 -0.0372467 C213.45295272 -0.04963389 220.43272472 -0.04081993 227.4127636 -0.01766968 C229.97785394 -0.01237068 232.54296868 -0.01391657 235.10804939 -0.02272034 C238.60304635 -0.03361175 242.09710428 -0.01998829 245.59204102 0 C246.6129494 -0.00892289 247.63385779 -0.01784577 248.6857028 -0.02703905 C253.07541217 0.02183184 255.60264885 0.09071479 259.42617798 2.39143181 C261.69897186 4.96404124 261.91920632 6.14203526 261.91125488 9.54162598 C261.92521301 11.0456749 261.92521301 11.0456749 261.93945312 12.58010864 C261.91486023 14.20340591 261.91486023 14.20340591 261.88977051 15.85949707 C261.88981079 16.98753754 261.88985107 18.115578 261.88989258 19.27780151 C261.88452666 21.67357935 261.86689866 24.06935612 261.8380127 26.46496582 C261.79672949 30.07100566 261.79689985 33.67513946 261.80383301 37.28137207 C261.75891719 53.91339749 260.78612605 69.98059245 255.29602051 85.82043457 C254.85262329 87.11437134 254.85262329 87.11437134 254.40026855 88.43444824 C241.47871742 124.47328364 215.64003883 151.78680205 181.4395752 168.41027832 C146.37992438 184.85100058 110.20776377 184.8203532 74.12219238 172.5333252 C61.42219384 167.92551646 50.03675433 161.6637615 39.29602051 153.50793457 C38.37434082 152.83117676 37.45266113 152.15441895 36.50305176 151.45715332 C31.93295871 148.0348976 31.93295871 148.0348976 30.29602051 146.50793457 C30.29602051 145.84793457 30.29602051 145.18793457 30.29602051 144.50793457 C29.71980957 144.25398926 29.14359863 144.00004395 28.54992676 143.73840332 C11.10119654 134.21266672 -3.79778438 105.45988284 -9.40710449 87.22180176 C-10.12744307 84.72162661 -10.80169446 82.21419493 -11.45397949 79.69543457 C-11.65281738 78.93851318 -11.85165527 78.1815918 -12.05651855 77.4017334 C-15.75584074 62.12695924 -16.10215494 46.57516409 -16.1295166 30.93737793 C-16.14162927 27.65484455 -16.19118596 24.37406994 -16.24108887 21.09191895 C-16.25053277 18.99492277 -16.25777748 16.89791527 -16.26257324 14.80090332 C-16.28210556 13.82493698 -16.30163788 12.84897064 -16.32176208 11.84342957 C-16.31568436 10.93760635 -16.30960663 10.03178314 -16.30334473 9.09851074 C-16.30841537 8.30595383 -16.31348602 7.51339691 -16.31871033 6.69682312 C-14.18864066 -0.887773 -6.34801522 -0.05548257 0 0 Z " fill="#FCFBFC" transform="translate(15.7039794921875,192.4920654296875)"/>
<path d="M0 0 C15.18 0 30.36 0 46 0 C48.59471308 5.83810442 51.0552425 11.58606951 53.2578125 17.5625 C53.55789215 18.36972 53.8579718 19.17694 54.16714478 20.00862122 C55.15601278 22.67134268 56.14058025 25.33563112 57.125 28 C57.83348971 29.91111414 58.5421526 31.8221641 59.25097656 33.7331543 C65.20304217 49.79334068 71.10397745 65.8723714 77.00219727 81.95239258 C83.48723876 99.62827906 90.01914799 117.28661747 96.56665039 134.93945312 C97.3960313 137.17576819 98.22537712 139.41209628 99.0546875 141.6484375 C99.46281174 142.74899475 99.87093597 143.849552 100.29142761 144.98345947 C103.20782744 152.85215002 106.11052694 160.7258164 109.0078125 168.6015625 C109.80455845 170.76539841 110.60135107 172.92921714 111.39819336 175.09301758 C112.53515912 178.1804302 113.67123369 181.26815339 114.80422974 184.35702515 C115.82932798 187.15166614 116.85767579 189.94509089 117.88671875 192.73828125 C118.18985992 193.56772247 118.4930011 194.3971637 118.80532837 195.2517395 C119.93033307 198.90136336 119.93033307 198.90136336 122 202 C122.28496338 201.22241585 122.28496338 201.22241585 122.57568359 200.42912292 C133.04103197 171.87553007 143.56726066 143.34576967 154.19189453 114.85107422 C156.88325178 107.63186012 159.56730693 100.40993734 162.25 93.1875 C162.50031982 92.51380371 162.75063965 91.84010742 163.00854492 91.14599609 C166.67168843 81.28664709 170.32400565 71.42331489 173.97265625 61.55859375 C174.86228977 59.15404721 175.75193831 56.74950624 176.64160156 54.3449707 C178.37776768 49.6525201 180.11260465 44.95958111 181.84667969 40.26635742 C182.66466335 38.05515721 183.48269525 35.84397485 184.30078125 33.6328125 C184.83313133 32.19034401 184.83313133 32.19034401 185.37623596 30.71873474 C189.17796176 20.45022352 193.10129841 10.23409168 197 0 C211.85 0 226.7 0 242 0 C242 82.5 242 165 242 250 C231.44 250 220.88 250 210 250 C209.67 184.99 209.34 119.98 209 53 C184.88473698 117.66784911 184.88473698 117.66784911 160.79977417 182.34698486 C159.82649975 184.96237969 158.85286463 187.57763999 157.87915039 190.19287109 C154.78894216 198.49411759 151.70337373 206.79703591 148.6287384 215.10406494 C147.13518292 219.13857857 145.63962603 223.1723489 144.14389038 227.20605469 C143.42708151 229.14090257 142.71126969 231.07612014 141.99649048 233.01171875 C141.01182977 235.67799855 140.02386424 238.34303139 139.03515625 241.0078125 C138.59420624 242.20593063 138.59420624 242.20593063 138.14434814 243.42825317 C136.11386522 248.88613478 136.11386522 248.88613478 135 250 C132.92737924 250.08767112 130.85179706 250.10695873 128.77734375 250.09765625 C127.51728516 250.09443359 126.25722656 250.09121094 124.95898438 250.08789062 C123.61848891 250.07953403 122.27799412 250.07106907 120.9375 250.0625 C119.59310058 250.0574866 118.2486994 250.05292342 116.90429688 250.04882812 C113.60282059 250.03699488 110.30143197 250.02050971 107 250 C100.57654099 233.22822348 94.28010964 216.41158612 88.0625 199.5625 C87.70695038 198.59901642 87.35140076 197.63553284 86.9850769 196.64285278 C85.49344319 192.60025137 84.00205742 188.55755859 82.51097107 184.51475525 C78.05841169 172.44384614 73.5930058 160.37769891 69.125 148.3125 C68.7107074 147.19363403 68.29641479 146.07476807 67.86956787 144.92199707 C60.72314443 125.62446727 53.54756053 106.33786857 46.35400391 87.05786133 C45.97952621 86.05384277 45.60504852 85.04982422 45.21922302 84.01538086 C44.53960813 82.19339256 43.85969175 80.37151667 43.17933655 78.54980469 C39.75783104 69.37681038 36.38467686 60.18698006 33 51 C32.67 116.67 32.34 182.34 32 250 C21.44 250 10.88 250 0 250 C0 167.5 0 85 0 0 Z " fill="#FFFFFF" transform="translate(425,110)"/>
<path d="M0 0 C-1.60830621 10.65013414 -3.877999 21.14408176 -6.13916016 31.66943359 C-6.5602006 33.63902886 -6.98100079 35.6086755 -7.40158081 37.57836914 C-8.54006968 42.90699969 -9.68185779 48.23491847 -10.82421541 53.56272078 C-12.02898501 59.18458057 -13.23056255 64.80712253 -14.4324646 70.42959595 C-16.71570994 81.10833416 -19.00159977 91.78650436 -21.28853738 102.46445239 C-24.61557118 117.99919154 -27.93905548 133.53469008 -31.26206017 149.07029152 C-31.5089045 150.22432421 -31.75574884 151.3783569 -32.0100733 152.56736028 C-32.50378406 154.87553604 -32.99748724 157.18371342 -33.49118268 159.49189246 C-35.36289614 168.24213428 -37.23640792 176.99199031 -39.11052239 185.74171817 C-40.19414158 190.80226902 -41.27620248 195.86314363 -42.35466957 200.92479515 C-42.56047964 201.89069726 -42.76628971 202.85659937 -42.97833645 203.85177124 C-43.38648653 205.76735515 -43.79457876 207.6829514 -44.20261085 209.59856045 C-45.38879485 215.15974286 -46.58860798 220.71776152 -47.80045426 226.27340686 C-48.55746739 229.74977963 -49.30709743 233.22772045 -50.05543399 236.70597005 C-50.39954865 238.2966632 -50.74696955 239.88664582 -51.09818196 241.47578692 C-55.67983085 259.03862904 -55.67983085 259.03862904 -53.15234375 276.3203125 C-50.07470219 280.8063663 -45.86331106 283.71264051 -41 286 C-41 286.66 -41 287.32 -41 288 C-47.31629863 289.00227467 -53.63352041 289.99856477 -59.95141602 290.99072266 C-62.1000703 291.32886621 -64.24851046 291.66837336 -66.39672852 292.00927734 C-69.486587 292.49936819 -72.57718523 292.98453169 -75.66796875 293.46875 C-77.10573921 293.69842468 -77.10573921 293.69842468 -78.57255554 293.93273926 C-79.47311172 294.07288452 -80.37366791 294.21302979 -81.30151367 294.35742188 C-82.08983078 294.48177612 -82.87814789 294.60613037 -83.69035339 294.73425293 C-86.14590717 295.01678802 -88.5304106 295.04495286 -91 295 C-89.58639717 286.60847802 -87.73601433 278.36069996 -85.7421875 270.08984375 C-85.4308399 268.78763914 -85.1198211 267.48535589 -84.80911255 266.18299866 C-83.9994502 262.79178065 -83.18667779 259.40131758 -82.37280273 256.0111084 C-81.21937757 251.20649013 -80.06728809 246.40155602 -78.91946411 241.59559631 C-78.30958334 239.04317955 -77.69756271 236.49127298 -77.08322144 233.93992615 C-76.80938629 232.79435745 -76.53555115 231.64878876 -76.25341797 230.46850586 C-76.01074188 229.45799667 -75.7680658 228.44748749 -75.51803589 227.40635681 C-74.92984782 225.08437996 -74.92984782 225.08437996 -75 223 C-75.46148438 223.8971875 -75.92296875 224.794375 -76.3984375 225.71875 C-91.10125237 253.98278546 -109.93758537 283.80757175 -141.0625 295.5 C-151.76165446 298.70547238 -162.42068644 297.78341352 -172.37109375 292.81640625 C-182.00991497 287.07862566 -186.29203833 278.60376034 -189.2734375 268.078125 C-193.76975444 249.02921235 -192.08065472 226.7701966 -187 208 C-186.79632812 207.24396484 -186.59265625 206.48792969 -186.3828125 205.70898438 C-176.11813141 169.11729714 -152.74165494 135.70982265 -119.51293945 116.7890625 C-97.6285308 104.74457224 -75.30416455 103.22684882 -51 107 C-49.5893587 100.45398714 -48.1840917 93.90683687 -46.7824707 87.35888672 C-46.30550404 85.13368923 -45.82732934 82.90875031 -45.34790039 80.68408203 C-44.65710123 77.47756877 -43.97072022 74.27013611 -43.28515625 71.0625 C-43.07157974 70.07572266 -42.85800323 69.08894531 -42.63795471 68.07226562 C-39.63359039 53.95549505 -36.70427117 37.50927651 -44.5 24.49609375 C-45.53461896 22.94665237 -46.59720718 21.41527076 -47.6953125 19.91015625 C-49 18 -49 18 -50 15 C-43.36335826 12.85768495 -36.72456884 10.72213162 -30.08422852 8.59130859 C-27.82461085 7.86533354 -25.565493 7.13780088 -23.30688477 6.40869141 C-20.0639593 5.3621271 -16.81928898 4.32114204 -13.57421875 3.28125 C-12.56163498 2.95314331 -11.54905121 2.62503662 -10.50578308 2.2869873 C-9.09465996 1.83652039 -9.09465996 1.83652039 -7.6550293 1.37695312 C-6.82674118 1.11047974 -5.99845306 0.84400635 -5.14506531 0.56945801 C-3 0 -3 0 0 0 Z M-125.60009766 139.80712891 C-150.52398336 169.85944972 -164.79775229 211.29222902 -161.44140625 250.32421875 C-160.38576144 259.11503083 -158.04787106 266.15452249 -151.5 272.375 C-144.85769827 275.4589258 -137.70976557 274.91480676 -130.875 272.5 C-105.20364056 260.70837078 -89.99949987 228.81577385 -78 205 C-77.43861328 203.90220215 -76.87722656 202.8044043 -76.29882812 201.67333984 C-68.97028212 187.14310405 -63.74593711 173.04418781 -60.1875 157.1875 C-60.01801849 156.43375092 -59.84853699 155.68000183 -59.67391968 154.90341187 C-56.50354883 142.73996279 -56.50354883 142.73996279 -57.91796875 130.609375 C-62.71206817 123.58786323 -67.56681888 119.71648819 -76 118 C-95.71158574 116.1535983 -112.72311816 125.26404038 -125.60009766 139.80712891 Z M-74 219 C-73 221 -73 221 -73 221 Z " fill="#FFFFFF" transform="translate(2064,72)"/>
<path d="M0 0 C10.56 0 21.12 0 32 0 C32.33 29.37 32.66 58.74 33 89 C34.65 87.02 36.3 85.04 38 83 C38.66 83 39.32 83 40 83 C40 82.34 40 81.68 40 81 C53.7893354 68.73053122 70.76011984 63.4935625 88.93359375 63.796875 C102.61346111 64.7030573 118.28406356 69.2839003 128.42578125 79.1328125 C141.57868976 94.73353277 146.3492012 111.0700075 146.22705078 131.3659668 C146.22734283 132.6550444 146.22763489 133.94412201 146.22793579 135.27226257 C146.22850444 138.77155696 146.21683012 142.27071137 146.20278788 145.76997352 C146.19019828 149.44013219 146.18910358 153.11029486 146.18673706 156.7804718 C146.18054629 163.71458247 146.16416835 170.6486293 146.14403808 177.58271199 C146.12160384 185.48365418 146.11066681 193.38459958 146.10064721 201.28556573 C146.0797997 217.52375364 146.04315389 233.76185372 146 250 C135.44 250 124.88 250 114 250 C113.98541748 246.40262939 113.97083496 242.80525879 113.95581055 239.09887695 C113.90535465 227.18057667 113.83888785 215.26240564 113.76428509 203.34423542 C113.71946413 196.12200194 113.68001858 188.89981627 113.65356445 181.67749023 C113.63047265 175.37694793 113.5969518 169.07655866 113.55129844 162.77613801 C113.52751527 159.44509463 113.51024646 156.11433892 113.50238609 152.7831974 C113.49268894 149.04965673 113.46456169 145.31665755 113.43237305 141.58325195 C113.43380814 140.49855118 113.43524323 139.4138504 113.4367218 138.29627991 C113.28375961 125.65754851 110.94664195 113.88307653 102.40625 104.19140625 C95.19163088 97.36814618 85.74570738 94.88001181 76 95 C63.44952867 96.05808124 52.99157704 100.00842296 44 109 C35.61455182 119.43771848 32.39136768 130.97199373 32.45410156 144.19433594 C32.44376389 145.34700958 32.43342621 146.49968323 32.42277527 147.68728638 C32.39355193 151.45312866 32.39185238 155.21842869 32.390625 158.984375 C32.37562961 161.61282361 32.35889963 164.24126285 32.34051514 166.86968994 C32.30016464 173.05291608 32.27966417 179.23603733 32.26654124 185.4193747 C32.25059958 192.46677065 32.21215444 199.51398988 32.17194796 206.56128263 C32.08983629 221.04080506 32.03853459 235.52029404 32 250 C21.44 250 10.88 250 0 250 C0 167.5 0 85 0 0 Z " fill="#FFFFFF" transform="translate(1097,110)"/>
<path d="M0 0 C20.40063069 -0.61509439 39.99140654 3.93393421 55.26171875 18.02734375 C69.11772189 32.61101445 69.67288979 51.44087602 69.64506531 70.34306335 C69.64053744 73.68971398 69.6547225 77.03584971 69.67346191 80.38244629 C69.71619263 88.68059794 69.72751509 96.97873509 69.73968506 105.27697754 C69.75121673 112.32128545 69.77475619 119.36535353 69.81437683 126.40956116 C69.827924 129.70116314 69.8237832 132.99243883 69.81896973 136.28405762 C69.82830835 138.30070411 69.83847667 140.31734699 69.84960938 142.33398438 C69.84346115 143.24419342 69.83731293 144.15440247 69.83097839 145.0921936 C69.88027725 150.17829838 70.33836467 153.78450064 73.234375 158.15625 C76.75593464 160.50395643 78.74209343 160.53294614 82.921875 160.78125 C84.69111328 160.89339844 84.69111328 160.89339844 86.49609375 161.0078125 C87.85154297 161.08128906 87.85154297 161.08128906 89.234375 161.15625 C89.26324251 165.30206887 89.28112827 169.44786216 89.296875 173.59375 C89.30525391 174.77775391 89.31363281 175.96175781 89.32226562 177.18164062 C89.32548828 178.30634766 89.32871094 179.43105469 89.33203125 180.58984375 C89.33726807 181.63197021 89.34250488 182.67409668 89.34790039 183.74780273 C89.234375 186.15625 89.234375 186.15625 88.234375 187.15625 C84.42976412 187.44033679 80.6108016 187.3882279 76.796875 187.40625 C75.21229492 187.4371875 75.21229492 187.4371875 73.59570312 187.46875 C63.95838042 187.51625375 55.63709284 186.08488749 47.9921875 179.91015625 C44.57400949 176.49957419 42.37650637 172.44051274 40.234375 168.15625 C39.698125 168.713125 39.161875 169.27 38.609375 169.84375 C25.44903894 182.65776142 7.52461839 189.41097692 -10.765625 190.15625 C-11.51457031 190.2078125 -12.26351563 190.259375 -13.03515625 190.3125 C-29.96586176 190.98635893 -47.01456238 185.32336232 -59.88671875 174.34765625 C-70.3688184 164.49963446 -74.97750071 152.78138345 -75.76171875 138.58203125 C-75.7781571 124.16560001 -72.2098424 111.8517873 -62.18652344 101.31518555 C-51.57993704 90.76635778 -37.06882435 84.68979376 -22.80078125 80.77734375 C-22.04116089 80.56801712 -21.28154053 80.35869049 -20.49890137 80.14302063 C-10.76001522 77.53064988 -0.8856046 75.52398587 8.99023438 73.5065918 C12.28651594 72.83309658 15.58085277 72.15064824 18.875 71.46679688 C20.97385385 71.03334792 23.07280839 70.60038617 25.171875 70.16796875 C26.15502686 69.96491623 27.13817871 69.76186371 28.15112305 69.55265808 C29.05386963 69.36858902 29.95661621 69.18451996 30.88671875 68.99487305 C31.68070068 68.83230515 32.47468262 68.66973724 33.29272461 68.50224304 C35.234375 68.15625 35.234375 68.15625 37.234375 68.15625 C36.95179774 57.68676234 36.44093395 47.48745506 29.984375 38.71875 C22.45764651 31.70520754 13.02269692 29.77336209 2.984375 29.84375 C1.72475952 29.85220947 1.72475952 29.85220947 0.43969727 29.86083984 C-10.77680392 30.07951886 -21.2644819 32.78600239 -29.51171875 40.8671875 C-32.75033036 44.85446517 -34.81963269 49.27370062 -36.9375 53.93359375 C-37.73559082 55.68337524 -37.73559082 55.68337524 -38.54980469 57.46850586 C-38.95102539 58.35546143 -39.35224609 59.24241699 -39.765625 60.15625 C-43.71738402 59.18066187 -47.66836643 58.20199544 -51.61865234 57.22045898 C-52.96284285 56.88692705 -54.30724324 56.55423982 -55.65185547 56.22241211 C-57.5835569 55.74554559 -59.5144472 55.26539711 -61.4453125 54.78515625 C-62.60788574 54.49713135 -63.77045898 54.20910645 -64.96826172 53.91235352 C-67.765625 53.15625 -67.765625 53.15625 -69.765625 52.15625 C-67.58281424 39.78698903 -60.54262415 29.84353536 -51.765625 21.15625 C-50.76982422 20.11017578 -50.76982422 20.11017578 -49.75390625 19.04296875 C-36.71040691 6.24791702 -17.78356809 1.00472136 0 0 Z M25.09375 95.73046875 C24.29390686 95.89617874 23.49406372 96.06188873 22.66998291 96.23262024 C20.97160218 96.58614199 19.27367425 96.94184501 17.57617188 97.29956055 C15.03686627 97.83272861 12.49520219 98.35327934 9.953125 98.87304688 C-18.01850037 103.87739508 -18.01850037 103.87739508 -39.765625 120.15625 C-44.36823263 129.33398701 -44.96075383 137.02674076 -41.734375 146.765625 C-38.927039 153.69340577 -34.55374994 158.02055907 -27.765625 161.15625 C-22.26212529 163.08753947 -17.33895815 163.50875981 -11.578125 163.46875 C-10.74095947 163.46383545 -9.90379395 163.4589209 -9.04125977 163.45385742 C5.5647096 163.1793885 17.39786955 158.5450079 28.03515625 148.4921875 C35.08701301 141.00193823 37.56067541 133.41237857 37.4296875 123.2578125 C37.42544266 122.00537247 37.42544266 122.00537247 37.42111206 120.72763062 C37.40997801 118.07868709 37.38488627 115.43009016 37.359375 112.78125 C37.34933643 110.97786949 37.34021212 109.17448364 37.33203125 107.37109375 C37.3100609 102.96601367 37.27557821 98.56119047 37.234375 94.15625 C33.01164919 94.15625 29.19951666 94.87026545 25.09375 95.73046875 Z " fill="#FFFFFF" transform="translate(1353.765625,173.84375)"/>
<path d="M0 0 C18.64858581 17.57801884 27.54090194 43.24335556 28.44140625 68.36328125 C29.10603779 96.55372864 23.60552301 122.71431334 4.48828125 144.3203125 C-9.89588744 159.38162465 -29.91746014 168.77468488 -50.81640625 169.390625 C-75.27424607 169.7349163 -97.51561293 163.8480661 -115.61328125 146.45703125 C-135.75248405 124.74372984 -142.29514496 96.06102503 -141.8125 67.1875 C-140.51597226 44.319296 -133.04977213 22.5455916 -117.8125 5.1875 C-117.15894531 4.43984375 -116.50539063 3.6921875 -115.83203125 2.921875 C-85.41108107 -29.66012629 -32.5310121 -27.10917675 0 0 Z M-86.8125 17.1875 C-87.67875 17.765 -88.545 18.3425 -89.4375 18.9375 C-102.58226875 31.39043882 -108.37048651 50.70698425 -109.015625 68.39453125 C-109.40155557 90.89574877 -105.89263448 112.25574448 -89.875 129.2421875 C-80.50694297 138.04362818 -68.53732785 142.03972781 -55.8125 142.1875 C-41.6670724 141.11510296 -29.22346993 136.40484489 -19.55078125 125.6796875 C-11.32638194 114.93313907 -7.02283056 103.44948333 -4.8125 90.1875 C-4.61527344 89.09695313 -4.61527344 89.09695313 -4.4140625 87.984375 C-1.49005653 69.17590416 -4.40249877 44.036379 -15.8125 28.1875 C-24.35368881 17.25206144 -33.94433962 9.71578382 -47.8125 7.1875 C-62.27375231 5.59846602 -75.11840893 8.20722753 -86.8125 17.1875 Z " fill="#FFFFFF" transform="translate(848.8125,194.8125)"/>
<path d="M0 0 C3.42562958 1.03303215 5.32748873 1.58878367 8.71484375 0.1875 C11.12097231 -1.14921945 11.12097231 -1.14921945 13.2734375 -2.65625 C15.31640625 -3.8203125 15.31640625 -3.8203125 19.31640625 -3.8203125 C18.79352499 2.09770268 17.85338618 7.68838051 16.3137207 13.42260742 C16.11147573 14.19648741 15.90923077 14.97036739 15.70085716 15.76769829 C15.03311165 18.31679745 14.35642695 20.86343148 13.6796875 23.41015625 C13.20253493 25.22473807 12.72597013 27.03947453 12.24995422 28.85435486 C11.23960633 32.70181905 10.22541361 36.54823991 9.20806885 40.39385986 C7.6242434 46.38115157 6.04930215 52.37075606 4.47607422 58.36083984 C2.64655267 65.32482852 0.81541802 72.28838739 -1.01846695 79.25122833 C-4.76064921 93.460063 -8.48076067 107.67449539 -12.17300415 121.89639282 C-13.04087646 125.23650044 -13.91228494 128.57567166 -14.78393555 131.91479492 C-15.30018007 133.90147471 -15.81622625 135.88820605 -16.33203125 137.875 C-16.56008957 138.74583725 -16.78814789 139.6166745 -17.02311707 140.51390076 C-19.2161456 148.99542273 -21.06031782 157.18906275 -18.68359375 165.8046875 C-15.63745679 170.94504362 -11.43064265 175.26400453 -5.68359375 177.1796875 C-5.68359375 177.8396875 -5.68359375 178.4996875 -5.68359375 179.1796875 C-14.11197966 180.99242578 -22.58578472 182.25803198 -31.11694336 183.46679688 C-33.50899669 183.80652 -35.90000591 184.15301647 -38.29101562 184.5 C-39.8241607 184.71915647 -41.35736193 184.93792054 -42.890625 185.15625 C-43.5990303 185.25934479 -44.30743561 185.36243958 -45.03730774 185.46865845 C-48.6143938 185.97008409 -52.0708804 186.29448809 -55.68359375 186.1796875 C-52.87194142 172.88453031 -49.52051188 159.78492458 -45.93359375 146.6796875 C-45.17402633 143.89717578 -44.41568661 141.1143489 -43.66033936 138.33068848 C-43.1955222 136.61831339 -42.72821916 134.90661063 -42.25811768 133.19567871 C-41.10544681 129.24541247 -41.10544681 129.24541247 -40.68359375 125.1796875 C-41.24046875 126.19546875 -41.79734375 127.21125 -42.37109375 128.2578125 C-49.21636466 140.64852368 -56.56845072 152.30611137 -65.68359375 163.1796875 C-66.2971875 163.94023437 -66.91078125 164.70078125 -67.54296875 165.484375 C-75.47682715 174.95910673 -85.14697786 181.79356197 -96.68359375 186.1796875 C-97.81796875 186.6128125 -98.95234375 187.0459375 -100.12109375 187.4921875 C-110.297769 189.45610728 -119.61894245 188.33330618 -128.80859375 183.5546875 C-140.02127613 174.29203684 -144.82822581 163.43186713 -146.68359375 149.1796875 C-146.96721862 144.98744187 -147.0177658 140.81811082 -146.99609375 136.6171875 C-146.9911792 135.47967041 -146.98626465 134.34215332 -146.98120117 133.17016602 C-146.84936874 123.59101859 -145.91165309 114.49323868 -143.68359375 105.1796875 C-143.51730469 104.48117676 -143.35101562 103.78266602 -143.1796875 103.06298828 C-134.55187582 68.22420426 -112.50145706 32.63742656 -81.94921875 13.0625 C-56.37016678 -1.68523092 -28.99942751 -8.86445382 0 0 Z M-83.1875 35.09375 C-106.36035697 64.99681065 -120.53671737 103.86997304 -117.375 141.890625 C-116.21627495 150.68873202 -114.11134829 158.43743824 -106.859375 164.10546875 C-101.51450766 166.74431708 -95.58977047 166.08116034 -90.0390625 164.359375 C-83.19912654 161.27871093 -77.94925356 156.42838867 -72.68359375 151.1796875 C-71.95527344 150.47457031 -71.22695312 149.76945313 -70.4765625 149.04296875 C-56.77231791 134.89426217 -47.95993847 115.95262243 -39.328125 98.49658203 C-38.30109193 96.4251344 -37.26147862 94.35982074 -36.203125 92.30419922 C-28.43921321 77.14880418 -23.8588645 61.29065114 -19.37109375 44.9296875 C-18.91922195 43.30240219 -18.91922195 43.30240219 -18.45822144 41.64224243 C-17.60095468 38.5293888 -16.76843016 35.41110001 -15.9453125 32.2890625 C-15.68558655 31.34425522 -15.4258606 30.39944794 -15.15826416 29.42601013 C-13.82552142 24.31673926 -13.82552142 24.31673926 -14.43603516 19.15600586 C-17.34154423 14.55324736 -22.01577484 11.88530319 -26.93359375 9.8046875 C-49.93438074 5.971223 -68.73794864 18.27726745 -83.1875 35.09375 Z M-39.68359375 121.1796875 C-38.68359375 123.1796875 -38.68359375 123.1796875 -38.68359375 123.1796875 Z " fill="#FFFFFF" transform="translate(1843.68359375,180.8203125)"/>
<path d="M0 0 C10.82774328 9.26896671 19.65282623 22.44650009 21.02734375 36.7109375 C17.3662801 38.5908098 13.70010192 40.46024937 10.02880859 42.32006836 C8.77995181 42.9545708 7.5325444 43.59193424 6.28662109 44.23217773 C4.49828112 45.1505337 2.70429229 46.05786338 0.91015625 46.96484375 C-0.16862793 47.51470947 -1.24741211 48.0645752 -2.35888672 48.63110352 C-3.22143066 48.98744873 -4.08397461 49.34379395 -4.97265625 49.7109375 C-7.99161788 48.20145669 -8.07707926 45.97796972 -9.16015625 42.8359375 C-13.85179116 30.36138636 -20.12116289 21.56678182 -32.09765625 15.3984375 C-45.65984387 9.94048395 -60.12549175 11.26823927 -73.4765625 16.51953125 C-77.44631222 18.41432572 -80.6785272 20.81801648 -83.97265625 23.7109375 C-84.5553125 24.18917969 -85.13796875 24.66742188 -85.73828125 25.16015625 C-95.82389234 34.17814634 -100.33331872 46.82739161 -102.97265625 59.7109375 C-103.16472656 60.60941406 -103.35679687 61.50789063 -103.5546875 62.43359375 C-106.49038681 85.45276873 -103.24948653 108.87386707 -88.97265625 127.7109375 C-79.77889653 137.86116055 -67.33813772 142.76142775 -53.90234375 143.9921875 C-41.45724789 144.38211217 -30.12661678 141.14950198 -20.78515625 132.7421875 C-13.40342008 125.02491787 -9.59878719 115.58975171 -5.97265625 105.7109375 C-2.80470698 107.124748 0.36145763 108.5425138 3.52734375 109.9609375 C4.85765625 110.55455078 4.85765625 110.55455078 6.21484375 111.16015625 C11.55400461 113.55492693 16.81301522 116.05504119 22.02734375 118.7109375 C19.50872827 135.22186122 8.15912133 149.84877707 -4.97265625 159.7109375 C-24.26614046 172.34031473 -48.10142171 176.04028819 -70.66015625 171.5234375 C-92.48847547 165.83484522 -111.07985234 154.16472933 -122.97265625 134.7109375 C-133.33026106 116.7099849 -137.37390993 98.15322512 -137.28515625 77.4609375 C-137.2830011 76.77773438 -137.28084595 76.09453125 -137.27862549 75.390625 C-137.1960576 59.07941052 -134.66545713 45.58193129 -127.97265625 30.7109375 C-127.57046875 29.78410156 -127.16828125 28.85726562 -126.75390625 27.90234375 C-123.74418639 21.38467337 -119.60105131 16.15990459 -114.97265625 10.7109375 C-114.49054687 10.08316406 -114.0084375 9.45539063 -113.51171875 8.80859375 C-101.49717786 -6.50473726 -80.603063 -14.36481318 -61.88671875 -16.875 C-39.3753235 -19.25644501 -17.9385942 -13.89837028 0 0 Z " fill="#FFFFFF" transform="translate(1040.97265625,191.2890625)"/>
<path d="M0 0 C5.08094166 4.39902581 8.04069476 11.37089278 8.9375 17.9375 C9.02543776 31.35680278 5.33462497 41.30347272 -4.0625 50.9375 C-27.15430399 70.87235997 -61.69848628 76.34934862 -91.3125 76 C-92.06917969 75.99548828 -92.82585938 75.99097656 -93.60546875 75.98632812 C-95.42451555 75.97481517 -97.24352018 75.9568967 -99.0625 75.9375 C-99.15337891 76.95457031 -99.15337891 76.95457031 -99.24609375 77.9921875 C-99.32988281 78.92289062 -99.41367188 79.85359375 -99.5 80.8125 C-99.63535156 82.34003906 -99.63535156 82.34003906 -99.7734375 83.8984375 C-99.94259496 85.67687678 -100.12774533 87.45417248 -100.3515625 89.2265625 C-102.77493726 108.82127839 -102.66580134 132.40266957 -90.69140625 148.96875 C-84.46772515 156.49089694 -77.92507184 159.62189462 -68.3125 160.8125 C-55.17865667 161.58896621 -43.7814335 156.19807298 -33.9375 147.8125 C-28.53582511 142.74842979 -24.29832753 136.98429727 -20.0625 130.9375 C-18.4125 131.5975 -16.7625 132.2575 -15.0625 132.9375 C-19.73151569 149.89339909 -32.69485195 166.34170979 -47.5859375 175.62890625 C-64.07025809 184.33907565 -81.16597411 186.42988208 -99.0625 180.9375 C-113.25564761 174.84702273 -121.93291086 164.89470372 -128 150.8046875 C-138.9235822 121.32707966 -133.36796457 87.91458684 -120.92626953 59.87792969 C-115.48489263 48.10419019 -108.63718228 37.67682504 -100.0625 27.9375 C-99.29292969 27.02355469 -98.52335937 26.10960937 -97.73046875 25.16796875 C-75.43159062 -0.58921681 -31.70598281 -21.35300883 0 0 Z M-75.1484375 26.171875 C-83.62695315 36.15842703 -96.0625 54.2620438 -96.0625 67.9375 C-70.08802966 65.47598725 -39.41998084 59.68760731 -21.83984375 38.5390625 C-16.97196665 31.41377427 -14.82498223 23.52466601 -16.0625 14.9375 C-17.72967882 10.19920231 -19.91612045 7.7363062 -24.0625 4.9375 C-43.54284469 -1.55594823 -62.64252007 12.77602337 -75.1484375 26.171875 Z " fill="#FFFFFF" transform="translate(2191.0625,185.0625)"/>
<path d="M0 0 C-0.60478717 5.30543316 -1.43364253 10.48419691 -2.58227539 15.70117188 C-2.73847855 16.42410431 -2.8946817 17.14703674 -3.05561829 17.89187622 C-3.56632463 20.25156524 -4.08194285 22.61015071 -4.59765625 24.96875 C-4.95525647 26.61634811 -5.31254638 28.2640136 -5.66954041 29.91174316 C-6.60515512 34.22614021 -7.54495513 38.53961492 -8.48565674 42.85290527 C-9.44676415 47.26336221 -10.40387313 51.67468651 -11.36132812 56.0859375 C-13.23699328 64.72480748 -15.11708515 73.36270747 -17 82 C-16.6356485 81.26344177 -16.271297 80.52688354 -15.89590454 79.76800537 C-14.51806247 76.98646879 -13.13734761 74.20638105 -11.75479126 71.42718506 C-10.87285914 69.65223595 -9.9941287 67.87569714 -9.11547852 66.09912109 C2.83461665 42.09729991 19.16332288 13.36929605 46 4 C51.04052475 2.53473118 55.723754 1.72942328 61 2 C58.63630506 10.57708886 55.50132211 18.83140432 52.3125 27.125 C51.79589779 28.47643786 51.27961945 29.82799958 50.76367188 31.1796875 C49.51283904 34.45455893 48.257653 37.7277407 47 41 C46.0517334 40.91041016 45.1034668 40.82082031 44.12646484 40.72851562 C42.25015381 40.56899414 42.25015381 40.56899414 40.3359375 40.40625 C39.0989209 40.29603516 37.8619043 40.18582031 36.58740234 40.07226562 C28.7622914 39.91463443 22.56604731 43.49839492 16.9921875 48.78125 C2.9905188 64.37526534 -5.70693729 84.97894051 -14.46484375 103.71875 C-15.42795721 105.77731312 -16.39822913 107.83255836 -17.37890625 109.8828125 C-26.0714774 128.11860396 -31.23812046 148.00737792 -31.125 168.3125 C-31.12886719 168.99505859 -31.13273437 169.67761719 -31.13671875 170.38085938 C-31.12565489 176.34981059 -30.54651336 181.98835308 -30 188 C-44.19 188 -58.38 188 -73 188 C-70.77091907 181.3127572 -70.77091907 181.3127572 -69.265625 178.03125 C-65.70396467 170.10600625 -62.5148085 162.17830649 -60.25390625 153.78125 C-60.00711624 152.86899658 -59.76032623 151.95674316 -59.50605774 151.0168457 C-55.48831977 135.6914994 -52.44407628 120.11702872 -49.22930908 104.60839844 C-48.50018426 101.09821723 -47.76505207 97.58930623 -47.02968121 94.08042908 C-46.14668934 89.86653771 -45.26632879 85.65209844 -44.38671875 81.4375 C-44.22130774 80.64528046 -44.05589672 79.85306091 -43.88547325 79.03683472 C-43.41792639 76.79437784 -42.95216628 74.55155806 -42.48706055 72.30859375 C-42.22314011 71.03814209 -41.95921967 69.76769043 -41.68730164 68.45874023 C-40.2668417 61.31049315 -39.75482184 54.58774698 -39.6875 47.3125 C-39.65849609 46.28705078 -39.62949219 45.26160156 -39.59960938 44.20507812 C-39.51663777 34.10168991 -42.25397651 26.20860498 -48 18 C-48 17.01 -48 16.02 -48 15 C-41.48685923 12.85965506 -34.97223472 10.72387507 -28.45654297 8.59130859 C-26.23874781 7.86482872 -24.02129838 7.13729258 -21.80419922 6.40869141 C-18.62296745 5.36344986 -15.44052416 4.32197527 -12.2578125 3.28125 C-11.26194122 2.95314331 -10.26606995 2.62503662 -9.24002075 2.2869873 C-8.31921722 1.98667603 -7.3984137 1.68636475 -6.44970703 1.37695312 C-5.6369632 1.11047974 -4.82421936 0.84400635 -3.98684692 0.56945801 C-2 0 -2 0 0 0 Z " fill="#FFFFFF" transform="translate(1647,175)"/>
<path d="M0 0 C-0.79002989 3.97949341 -1.58232385 7.95853292 -2.375 11.9375 C-2.59671875 13.05447266 -2.8184375 14.17144531 -3.046875 15.32226562 C-3.26601562 16.42119141 -3.48515625 17.52011719 -3.7109375 18.65234375 C-3.90993652 19.65257568 -4.10893555 20.65280762 -4.31396484 21.68334961 C-5.16512244 25.79828769 -6.08844839 29.89801776 -7 34 C7.85 34 22.7 34 38 34 C37.34 37.63 36.68 41.26 36 45 C20.82 45 5.64 45 -10 45 C-10.66 48.96 -11.32 52.92 -12 57 C-12.38967191 58.99738637 -12.79381259 60.99215974 -13.22756958 62.98043823 C-13.44908691 64.00322876 -13.67060425 65.02601929 -13.89883423 66.07980347 C-14.13476288 67.15545563 -14.37069153 68.23110779 -14.61376953 69.33935547 C-14.86765442 70.5085553 -15.12153931 71.67775513 -15.38311768 72.88238525 C-15.92985211 75.40007431 -16.47769675 77.91752249 -17.02655411 80.4347496 C-17.89714697 84.42904372 -18.76081878 88.42481534 -19.62301636 92.42092896 C-19.76949494 93.09967068 -19.91597351 93.7784124 -20.06689084 94.47772205 C-20.3661067 95.86422863 -20.66531101 97.25073771 -20.964504 98.63724923 C-22.96794731 107.91977576 -24.97621713 117.20120809 -27.00146484 126.47900391 C-28.37393216 132.76662521 -29.73598873 139.05640615 -31.08648384 145.34878457 C-31.79868473 148.66513555 -32.51591544 151.98020377 -33.24603653 155.29265976 C-34.05909746 158.99297323 -34.85396216 162.69678479 -35.64501953 166.40185547 C-35.88499664 167.47345917 -36.12497375 168.54506287 -36.3722229 169.6491394 C-39.32992152 182.75881138 -39.32992152 182.75881138 -36.67439461 195.3414135 C-33.93441208 198.05552761 -31.79769439 198 -28 198 C-14.26430534 194.35583611 -3.58739385 181.38109078 4 170 C6.4375 170.75 6.4375 170.75 9 172 C9.79174805 173.83618164 9.79174805 173.83618164 10 176 C9.20239258 177.90014648 9.20239258 177.90014648 7.89453125 179.87109375 C7.41185791 180.60400635 6.92918457 181.33691895 6.43188477 182.09204102 C5.89748779 182.86604248 5.36309082 183.64004395 4.8125 184.4375 C4.26585693 185.23792725 3.71921387 186.03835449 3.15600586 186.86303711 C-7.66962996 202.385214 -20.60952373 216.29952743 -40 220 C-46.34056416 220.77236334 -52.46062752 220.41326479 -58 217 C-64.7658012 211.33466044 -67.3361366 204.85029622 -68.3125 196.24609375 C-68.59694916 189.42820283 -67.59563009 182.98711624 -66.35253906 176.30810547 C-66.17710194 175.35641417 -66.00166481 174.40472286 -65.82091141 173.42419243 C-63.45752108 160.83294766 -60.67653506 148.33043173 -57.921875 135.8203125 C-57.34389009 133.18391594 -56.76708483 130.54726166 -56.19024658 127.91061401 C-54.84060321 121.74474109 -53.48704797 115.57973426 -52.13197637 109.41505229 C-50.58585981 102.38029424 -49.04427227 95.34454603 -47.50300741 88.30872369 C-44.3402688 73.87139931 -41.1718691 59.43532123 -38 45 C-44.6 45 -51.2 45 -58 45 C-58 40 -58 40 -55.98046875 37.82421875 C-55.05878906 37.11910156 -54.13710937 36.41398437 -53.1875 35.6875 C-52.17429687 34.90375 -51.16109375 34.12 -50.1171875 33.3125 C-46.44941505 30.591546 -42.77801751 27.87970601 -39.06640625 25.21875 C-35.42713631 22.58549481 -31.83874595 19.88895174 -28.25 17.1875 C-26.88418877 16.16526545 -25.51830279 15.14313077 -24.15234375 14.12109375 C-21.35857492 12.02823745 -18.58315478 9.91357405 -15.81640625 7.78515625 C-14.48198701 6.77315239 -13.14735955 5.76142301 -11.8125 4.75 C-11.20116211 4.27199951 -10.58982422 3.79399902 -9.95996094 3.30151367 C-6.41176566 0.63542544 -4.38826117 -0.23667445 0 0 Z " fill="#FFFFFF" transform="translate(1540,149)"/>
<path d="M0 0 C3.20777352 2.38526749 4.26730073 4.15611697 5 8 C5.09025216 9.55180407 5.13049027 11.10693867 5.13371277 12.66136169 C5.13797775 13.59360565 5.14224274 14.52584961 5.14663696 15.48634338 C5.14618378 16.50203903 5.14573059 17.51773468 5.14526367 18.56420898 C5.14862228 19.63940796 5.1519809 20.71460693 5.15544128 21.8223877 C5.16494836 25.38030143 5.1668942 28.9381681 5.16796875 32.49609375 C5.17118121 34.9670463 5.17454528 37.43799866 5.17805481 39.90895081 C5.18404527 45.08977703 5.18589476 50.27058657 5.18530273 55.45141602 C5.18520105 62.09391577 5.19886 68.73630878 5.21607494 75.37878323 C5.22718583 80.48224887 5.22922223 85.58568861 5.22869301 90.68916512 C5.22987424 93.1384016 5.234304 95.58763873 5.24202538 98.03686333 C5.25180784 101.46011747 5.24895411 104.8831387 5.24291992 108.30639648 C5.24853943 109.3200679 5.25415894 110.33373932 5.25994873 111.37812805 C5.23293247 117.40077517 5.12641499 121.75207558 0.8125 126.3125 C-2.84113829 128.50468298 -4.79882196 128.6633439 -9 128 C-11.80638265 126.38838245 -13.19773772 125.56500193 -15 123 C-15.87794939 119.21940883 -15.76856651 115.51375824 -15.69702148 111.64794922 C-15.69950394 110.50111664 -15.70198639 109.35428406 -15.70454407 108.17269897 C-15.70546222 104.3826902 -15.66364878 100.5944374 -15.62109375 96.8046875 C-15.61243973 94.17343837 -15.60629371 91.54217989 -15.60255432 88.91091919 C-15.59060594 83.39789458 -15.55682223 77.88537109 -15.50756836 72.37255859 C-15.43814621 64.59727102 -15.40881433 56.82220754 -15.38716781 49.04666114 C-15.36886803 43.00763632 -15.3392911 36.96866035 -15.30859375 30.9296875 C-15.30216795 29.63865993 -15.29574215 28.34763237 -15.28912163 27.01748276 C-15.26819321 23.37600307 -15.23990077 19.73466658 -15.20874023 16.09326172 C-15.20290924 15.00851563 -15.19707825 13.92376953 -15.19107056 12.80615234 C-15.18102493 11.81638397 -15.17097931 10.8266156 -15.16062927 9.80685425 C-15.15375815 8.94594114 -15.14688704 8.08502804 -15.1398077 7.19802666 C-15 5 -15 5 -14 2 C-8.96477083 -1.43869309 -5.71031643 -1.38152817 0 0 Z " fill="#FFFFFF" transform="translate(200,21)"/>
<path d="M0 0 C3.48374998 0.80151494 5.07543221 2.69999485 7.15625 5.49609375 C8.28985797 8.89691765 8.29015984 11.50496794 8.30151367 15.09130859 C8.30487228 15.75671158 8.3082309 16.42211456 8.31169128 17.10768127 C8.32119032 19.30748359 8.32314392 21.5072097 8.32421875 23.70703125 C8.32743225 25.23776277 8.3307964 26.76849398 8.33430481 28.29922485 C8.34029359 31.50873527 8.34214499 34.71821877 8.34155273 37.92773438 C8.34145117 42.03570253 8.3550985 46.14349763 8.37232494 50.25142479 C8.38345675 53.41361276 8.38547157 56.57575907 8.38494301 59.73796463 C8.38612153 61.25218934 8.39053614 62.76641518 8.39827538 64.28062057 C8.40809844 66.40123271 8.40518819 68.52147139 8.39916992 70.64208984 C8.40059494 71.84771576 8.40201996 73.05334167 8.40348816 74.29550171 C8.05431345 78.8157012 7.08347503 81.51588443 3.96875 84.80859375 C0.35500662 86.97683978 -1.69014617 87.08946573 -5.84375 86.49609375 C-8.59704021 84.7004697 -10.37002461 83.44354453 -11.84375 80.49609375 C-11.96176778 78.15402701 -12.01365058 75.80854888 -12.03662109 73.46362305 C-12.04479858 72.73984467 -12.05297607 72.01606628 -12.06140137 71.27035522 C-12.08625413 68.87034942 -12.10277106 66.47040276 -12.1171875 64.0703125 C-12.12251118 63.25094522 -12.12783485 62.43157795 -12.13331985 61.58738136 C-12.16005106 57.25040243 -12.17942593 52.91345227 -12.19384766 48.57641602 C-12.21049486 44.09710047 -12.25527256 39.61852078 -12.3062191 35.13948345 C-12.339878 31.69506487 -12.35142353 28.25082124 -12.35707474 24.80625343 C-12.36379113 23.15521433 -12.37902346 21.50418689 -12.40296555 19.85330772 C-12.43459303 17.54051158 -12.4346587 15.22970373 -12.42724609 12.91674805 C-12.43533295 11.60151657 -12.4434198 10.2862851 -12.45175171 8.93119812 C-11.19061567 1.80599786 -6.62268562 -0.36424771 0 0 Z " fill="#FFFFFF" transform="translate(139.84375,62.50390625)"/>
<path d="M0 0 C3.30642098 3.41663502 4.12244379 6.73641233 4.14526367 11.39208984 C4.15164352 12.27665863 4.15802338 13.16122742 4.16459656 14.07260132 C4.16570938 15.02575226 4.1668222 15.9789032 4.16796875 16.9609375 C4.17129715 17.94365631 4.17462555 18.92637512 4.17805481 19.93887329 C4.18311879 22.01848889 4.1854633 24.09811262 4.18530273 26.17773438 C4.18748667 29.35560545 4.20564105 32.53312797 4.22460938 35.7109375 C4.22754392 37.73176965 4.22952831 39.75260344 4.23046875 41.7734375 C4.23765427 42.72253998 4.24483978 43.67164246 4.25224304 44.64950562 C4.23179152 50.57147724 3.95786718 54.74548628 -0.0625 59.375 C-3.67560052 61.37373646 -5.80313979 61.23020331 -9.81640625 60.84765625 C-13.17733994 59.54296464 -14.12923801 58.1168944 -16 55 C-16.61292731 51.18022568 -16.58424141 47.39349399 -16.56640625 43.53125 C-16.57260483 42.41818481 -16.57880341 41.30511963 -16.58518982 40.1583252 C-16.59228453 37.80819574 -16.58912016 35.45801598 -16.57641602 33.10791016 C-16.56254785 29.51240614 -16.59663308 25.91950315 -16.63476562 22.32421875 C-16.63571681 20.03906186 -16.63385806 17.75390172 -16.62890625 15.46875 C-16.64216446 14.39467896 -16.65542267 13.32060791 -16.66908264 12.21398926 C-16.57597122 4.75100934 -16.57597122 4.75100934 -13.57788086 0.84179688 C-8.57531959 -2.73234104 -5.78890407 -2.21030883 0 0 Z " fill="#FFFFFF" transform="translate(87,88)"/>
</svg>
