<?xml version="1.0" encoding="UTF-8"?>
<svg version="1.1" xmlns="http://www.w3.org/2000/svg" width="411" height="479">
<path d="M0 0 C1.00610758 -0.00644889 2.01221515 -0.01289778 3.04881084 -0.0195421 C4.15725483 -0.01644489 5.26569881 -0.01334769 6.40773201 -0.01015663 C7.58283054 -0.01468774 8.75792906 -0.01921886 9.96863663 -0.02388728 C13.23590087 -0.03438087 16.50302721 -0.03585314 19.77030301 -0.03349853 C23.29186735 -0.03309115 26.81339859 -0.04412189 30.33494759 -0.05361366 C37.23641894 -0.07024187 44.13785614 -0.07572403 51.03934585 -0.07683842 C56.64802799 -0.07778803 62.25669885 -0.08189397 67.86537743 -0.08823967 C83.75953858 -0.10585704 99.65367269 -0.11507777 115.54784368 -0.11357872 C116.83371103 -0.11345885 116.83371103 -0.11345885 118.1455555 -0.11333656 C119.43298899 -0.11321392 119.43298899 -0.11321392 120.74643125 -0.1130888 C134.65887414 -0.11227576 148.57120881 -0.13141678 162.48362039 -0.1596133 C176.76145392 -0.18832258 191.03923464 -0.20215467 205.31709778 -0.20042574 C213.33599168 -0.19976116 221.35477212 -0.20528308 229.37364006 -0.22678185 C236.20079474 -0.24496797 243.02778454 -0.24936225 249.85495292 -0.235763 C253.3391671 -0.22922023 256.82306474 -0.2291627 260.30724907 -0.2464695 C264.08256577 -0.26182013 267.85704378 -0.25268016 271.63234138 -0.23720741 C272.73632393 -0.24749454 273.84030647 -0.25778167 274.97774303 -0.26838052 C282.3725401 -0.20112771 282.3725401 -0.20112771 286.32784653 2.139925 C288.54045863 4.71519335 288.77012763 5.92494099 288.76225471 9.29096031 C288.77621284 10.79500923 288.77621284 10.79500923 288.79045296 12.32944298 C288.76586006 13.95274025 288.76586006 13.95274025 288.74077034 15.60883141 C288.74081062 16.73687187 288.74085091 17.86491234 288.74089241 19.02713585 C288.7355265 21.42291369 288.7178985 23.81869045 288.68901253 26.21430016 C288.64772932 29.82033999 288.64789968 33.4244738 288.65483284 37.03070641 C288.60886645 54.3556111 287.41187885 70.47910976 281.45952034 86.88226891 C281.13918831 87.80265953 280.81885628 88.72305016 280.48881721 89.67133141 C279.72102989 91.87155777 278.9408505 94.06633677 278.14702034 96.25726891 C277.48702034 96.25726891 276.82702034 96.25726891 276.14702034 96.25726891 C275.89307503 97.09515953 275.63912971 97.93305016 275.37748909 98.79633141 C272.19430698 107.74966266 267.43806949 116.57195421 260.84233284 123.44867516 C259.0282035 125.38402512 257.51959939 127.42560229 255.95952034 129.56976891 C248.60207006 139.11634869 238.97161005 146.42549679 229.14702034 153.25726891 C227.98005893 154.13187577 226.81335448 155.00682571 225.64702034 155.88226891 C195.08175032 177.45775362 152.07938615 186.06225879 115.41850471 179.80365562 C83.85478677 173.74537309 56.97731733 161.29649311 33.03373909 139.89789391 C31.10265892 138.17826169 31.10265892 138.17826169 28.74077034 136.45648766 C25.67173049 133.85427465 23.37535065 131.01772885 20.95952034 127.81976891 C20.52188362 127.25967125 20.0842469 126.69957359 19.63334846 126.12250328 C17.7199687 123.61904304 16.18456909 121.35331466 15.03373909 118.40961266 C14.7411219 117.69933922 14.44850471 116.98906578 14.14702034 116.25726891 C12.66202034 115.76226891 12.66202034 115.76226891 11.14702034 115.25726891 C10.01201057 113.7860775 10.01201057 113.7860775 8.95561409 111.90570641 C8.56825081 111.21863609 8.18088753 110.53156578 7.78178596 109.82367516 C7.38668831 109.10051109 6.99159065 108.37734703 6.58452034 107.63226891 C6.1855555 106.93230797 5.78659065 106.23234703 5.37553596 105.51117516 C2.95902074 101.16225461 1.32098445 97.09273188 0.14702034 92.25726891 C-0.51297966 92.25726891 -1.17297966 92.25726891 -1.85297966 92.25726891 C-2.66937284 89.38332392 -3.48120107 86.50821761 -4.29047966 83.63226891 C-4.52057732 82.82402672 -4.75067497 82.01578453 -4.98774529 81.18305016 C-5.21010857 80.39027672 -5.43247185 79.59750328 -5.66157341 78.78070641 C-5.86580925 78.05802574 -6.07004509 77.33534508 -6.28046989 76.590765 C-7.51646329 71.55297189 -7.98342428 66.73194542 -8.01411247 61.54926109 C-8.02372002 60.23480003 -8.03332756 58.92033897 -8.04322624 57.56604576 C-8.04807151 56.14541359 -8.052351 54.72477938 -8.05610466 53.30414391 C-8.06186176 51.83777427 -8.06761942 50.37140465 -8.07337761 48.90503502 C-8.08384595 45.84210423 -8.08971756 42.77919941 -8.09321404 39.71625328 C-8.09872713 35.78623674 -8.12283167 31.85656171 -8.15118599 27.92665291 C-8.16976634 24.90355972 -8.17501522 21.88055019 -8.17654991 18.85740471 C-8.1795813 17.40767335 -8.18762621 15.95794362 -8.20073509 14.50826836 C-8.2177169 12.48814773 -8.21408201 10.46788522 -8.20942497 8.44769859 C-8.2130706 7.29775414 -8.21671623 6.14780968 -8.22047234 4.96301842 C-8.09919975 4.07012108 -7.97792717 3.17722374 -7.85297966 2.25726891 C-4.61146404 0.09625849 -3.73964057 0.00604872 0 0 Z " fill="#FBFAFB" transform="translate(67.85297966003418,194.74273109436035)"/>
<path d="M0 0 C2.56275613 2.06991841 2.81255761 4.12137973 3.625 7.3125 C3.91167919 10.91050113 3.89827228 14.495872 3.88378906 18.10375977 C3.8872937 19.17925079 3.89079834 20.25474182 3.89440918 21.36282349 C3.90319573 24.90991716 3.8973885 28.45681063 3.890625 32.00390625 C3.89197243 34.47200051 3.89391362 36.94009451 3.89642334 39.40818787 C3.89937035 44.57708263 3.89509009 49.74590821 3.88574219 54.91479492 C3.87434201 61.54155508 3.88091349 68.16815333 3.89288712 74.79490757 C3.90011196 79.88979819 3.89781499 84.98465039 3.89263153 90.07954216 C3.89129708 92.52319292 3.8929356 94.96684716 3.89759064 97.41049385 C3.90266667 100.8239683 3.89493044 104.23717991 3.88378906 107.65063477 C3.88783752 108.66116409 3.89188599 109.67169342 3.89605713 110.71284485 C3.84287439 119.50338213 3.84287439 119.50338213 1.625 123.3125 C-1.58173436 126.07178305 -3.67406735 127.21236676 -7.875 127.8125 C-11.99860946 127.22341293 -14.15967018 125.91538605 -17.375 123.3125 C-18.5868338 120.88883241 -18.50079224 119.35871616 -18.50198364 116.65040588 C-18.50621338 115.17610107 -18.50621338 115.17610107 -18.51052856 113.67201233 C-18.50850433 112.58987961 -18.5064801 111.50774689 -18.50439453 110.39282227 C-18.50702301 108.68786087 -18.50702301 108.68786087 -18.50970459 106.94845581 C-18.51412105 103.17525728 -18.51118562 99.40210529 -18.5078125 95.62890625 C-18.50848564 93.01578258 -18.50945576 90.40265898 -18.51071167 87.78953552 C-18.51253239 82.30589286 -18.51012988 76.82226366 -18.50537109 71.33862305 C-18.49993137 64.99706237 -18.50168941 58.65553386 -18.5071975 52.31397396 C-18.51228101 46.21749479 -18.51174443 40.12102989 -18.50881577 34.02454948 C-18.5081472 31.42852715 -18.50897248 28.832504 -18.51129532 26.23648262 C-18.5138265 22.61149019 -18.50997445 18.98656004 -18.50439453 15.36157227 C-18.50641876 14.28146378 -18.50844299 13.20135529 -18.51052856 12.08851624 C-18.50629883 10.60998169 -18.50629883 10.60998169 -18.50198364 9.10157776 C-18.50160662 8.24414254 -18.50122959 7.38670732 -18.50084114 6.50328922 C-18.375 4.3125 -18.375 4.3125 -17.375 1.3125 C-11.13305507 -2.25432567 -6.89941989 -1.9972005 0 0 Z " fill="#FEFEFE" transform="translate(275.375,23.6875)"/>
<path d="M0 0 C4.52451737 0.13432161 6.81763887 0.26039221 10.5625 3.01171875 C13.67713204 7.43248681 13.62804006 11.02853642 13.64526367 16.37866211 C13.64862228 17.03445755 13.6519809 17.69025299 13.65544128 18.36592102 C13.66491873 20.52782093 13.66689269 22.68964313 13.66796875 24.8515625 C13.67118325 26.35844454 13.67454747 27.86532626 13.67805481 29.37220764 C13.68403782 32.52866337 13.68589553 35.68509174 13.68530273 38.84155273 C13.68520109 42.88111205 13.69885957 46.92049571 13.71607494 50.96001339 C13.72720611 54.07158714 13.72922161 57.18311854 13.72869301 60.29471016 C13.72987119 61.78381519 13.73428393 63.27292138 13.74202538 64.76200676 C13.7518492 66.84658926 13.74893815 68.93079193 13.74291992 71.01538086 C13.74434494 72.20022568 13.74576996 73.3850705 13.74723816 74.6058197 C13.39787058 79.06536117 12.3989422 81.78345812 9.375 85.07421875 C5.63475263 87.26958134 2.74185572 87.63579811 -1.5 86.76171875 C-4.3100346 84.96807964 -6.00940468 83.7429094 -7.5 80.76171875 C-7.6179337 78.4555689 -7.66988823 76.14596306 -7.69287109 73.83691406 C-7.70104858 73.12449554 -7.70922607 72.41207703 -7.71765137 71.67807007 C-7.74250621 69.31533652 -7.75902299 66.95266312 -7.7734375 64.58984375 C-7.77876118 63.78275719 -7.78408485 62.97567062 -7.78956985 62.14412689 C-7.81630398 57.87083384 -7.83567654 53.59757 -7.85009766 49.32421875 C-7.86673122 44.91449781 -7.91149659 40.50552632 -7.9624691 36.09608841 C-7.99616243 32.70224165 -8.00767739 29.30857217 -8.01332474 25.91457367 C-8.02003331 24.28947992 -8.03524531 22.66439767 -8.05921555 21.03946686 C-8.09091248 18.76039541 -8.09089818 16.48333645 -8.08349609 14.20410156 C-8.09158295 12.90885559 -8.0996698 11.61360962 -8.10800171 10.27911377 C-7.26453251 5.39949861 -5.02013024 1.52957093 0 0 Z " fill="#FEFEFE" transform="translate(203.5,64.23828125)"/>
<path d="M0 0 C3.51054398 5.33058911 3.42373328 10.09913636 3.36328125 16.25390625 C3.36377975 17.23238022 3.36427826 18.21085419 3.36479187 19.21897888 C3.36245837 21.2806909 3.35277275 23.34240615 3.33618164 25.40405273 C3.31255297 28.55543533 3.315631 31.70597294 3.32226562 34.85742188 C3.31668947 36.86458836 3.30957998 38.8717513 3.30078125 40.87890625 C3.30214836 42.28844322 3.30214836 42.28844322 3.30354309 43.72645569 C3.24556368 49.08638087 3.04197863 53.36537814 -0.359375 57.75390625 C-3.50430775 60.14255756 -7.15491329 60.22917735 -11 60 C-14.36818073 58.77747514 -17.3410973 57.3178054 -19 54 C-19.11524171 52.42371596 -19.16947635 50.84276908 -19.19287109 49.26245117 C-19.20893402 48.27770309 -19.22499695 47.29295502 -19.24154663 46.27836609 C-19.28595795 41.77274219 -19.32705968 37.26726614 -19.35009766 32.76147461 C-19.36666249 30.38409642 -19.39395912 28.00676814 -19.43212891 25.62963867 C-19.48685255 22.20465213 -19.50876542 18.78083341 -19.5234375 15.35546875 C-19.54610687 14.29386032 -19.56877625 13.23225189 -19.59213257 12.13847351 C-19.57093436 4.74370639 -19.57093436 4.74370639 -16.60791016 0.8840332 C-10.84284906 -3.28082136 -6.26076289 -3.93935643 0 0 Z " fill="#FEFEFE" transform="translate(153,91)"/>
<path d="M0 0 C0.33 0 0.66 0 1 0 C1 19.14 1 38.28 1 58 C0.67 58 0.34 58 0 58 C-0.88435612 51.18158796 -1.1467168 44.52760346 -1.1328125 37.65625 C-1.13376923 36.60594604 -1.13472595 35.55564209 -1.13571167 34.47351074 C-1.13638807 32.2717279 -1.13457173 30.069943 -1.13037109 27.86816406 C-1.1249719 24.48237724 -1.13035634 21.09672048 -1.13671875 17.7109375 C-1.13605872 15.56770804 -1.13477911 13.42447866 -1.1328125 11.28125 C-1.13483673 10.26470337 -1.13686096 9.24815674 -1.13894653 8.20080566 C-1.13579437 7.26893433 -1.13264221 6.33706299 -1.12939453 5.37695312 C-1.12859894 4.55360474 -1.12780334 3.73025635 -1.12698364 2.88195801 C-1 1 -1 1 0 0 Z " fill="#FBFAFB" transform="translate(1,195)"/>
</svg>
